<?xml version="1.0" standalone="no"?>
<!DOCTYPE svg PUBLIC "-//W3C//DTD SVG 20010904//EN"
 "http://www.w3.org/TR/2001/REC-SVG-20010904/DTD/svg10.dtd">
<svg version="1.0" xmlns="http://www.w3.org/2000/svg"
 width="2048.000000pt" height="2048.000000pt" viewBox="0 0 2048.000000 2048.000000"
 preserveAspectRatio="xMidYMid meet">

<g transform="translate(0.000000,2048.000000) scale(0.100000,-0.100000)"
fill="#000000" stroke="none">
<path d="M8408 13245 c-2 -20 -2 -38 1 -40 2 -3 28 -5 57 -5 67 0 184 -22 255
-49 165 -62 242 -175 269 -393 16 -134 8 -4593 -9 -4728 -43 -340 -91 -534
-176 -705 -123 -247 -272 -379 -510 -451 -79 -24 -107 -27 -230 -27 -123 -1
-147 2 -198 22 -76 30 -131 83 -147 140 -11 43 -10 47 33 130 63 119 81 187
81 301 0 149 -46 271 -135 359 -168 165 -462 170 -633 11 -225 -211 -200 -599
54 -834 147 -136 356 -226 636 -273 170 -28 563 -25 739 6 384 67 706 245 932
515 276 328 413 718 463 1311 6 74 10 863 10 2080 0 1227 4 1996 10 2055 33
315 155 473 402 524 42 9 100 16 128 16 l51 0 -3 33 -3 32 -1036 3 -1037 2 -4
-35z"/>
<path d="M11401 9625 c0 -114 3 -206 9 -215 7 -11 10 -6 10 20 1 33 1 34 15
16 15 -19 15 -19 15 2 0 16 -6 22 -22 23 -17 1 -19 2 -5 6 21 5 21 7 -3 198
l-18 150 -1 -200z"/>
<path d="M11541 9040 c0 -8 4 -22 9 -30 12 -18 12 -2 0 25 -6 13 -9 15 -9 5z"/>
<path d="M11558 8961 c-2 -17 -1 -28 3 -25 4 2 13 -12 19 -31 6 -19 16 -35 22
-35 6 0 7 8 3 18 -4 9 -14 36 -22 60 -8 23 -16 42 -18 42 -1 0 -5 -13 -7 -29z"/>
<path d="M11401 8761 c0 -101 1 -182 4 -180 9 10 13 188 6 274 -7 79 -8 69
-10 -94z"/>
<path d="M11610 8851 c0 -6 4 -13 10 -16 6 -3 7 1 4 9 -7 18 -14 21 -14 7z"/>
<path d="M11820 8525 c41 -49 63 -94 38 -79 -7 4 -8 3 -4 -4 4 -6 13 -9 20 -6
7 3 16 -2 20 -11 3 -10 12 -15 21 -11 8 3 14 0 12 -6 -1 -7 4 -12 11 -13 6 0
11 -3 10 -7 -2 -4 12 -18 29 -31 18 -13 31 -26 28 -28 -2 -3 7 -6 21 -7 14 -1
34 -7 45 -12 38 -21 18 -2 -38 35 -32 21 -98 77 -148 124 -49 47 -79 73 -65
56z"/>
<path d="M13105 8215 c-74 -28 -200 -53 -325 -64 l-95 -9 125 3 c69 1 132 5
140 8 36 13 68 14 63 0 -3 -7 -10 -10 -17 -6 -6 4 -5 -1 3 -10 12 -15 11 -17
-2 -17 -10 0 -14 -6 -11 -15 4 -8 11 -12 18 -8 6 4 5 -1 -3 -11 -11 -13 -16
-14 -22 -4 -6 9 -9 3 -9 -15 0 -35 6 -32 92 51 37 36 65 69 61 75 -3 6 -2 7 4
4 6 -4 21 5 33 18 28 30 23 30 -55 0z m-5 -35 c-20 -13 -33 -13 -25 0 3 6 14
10 23 10 15 0 15 -2 2 -10z"/>
<path d="M11400 8055 c0 -76 3 -136 6 -132 7 7 7 258 -1 265 -3 3 -5 -57 -5
-133z"/>
<path d="M12378 8183 c7 -3 16 -2 19 1 4 3 -2 6 -13 5 -11 0 -14 -3 -6 -6z"/>
<path d="M12435 8170 c19 -8 83 -14 74 -6 -2 2 -24 6 -49 9 -30 4 -38 3 -25
-3z"/>
<path d="M12543 8153 c9 -2 23 -2 30 0 6 3 -1 5 -18 5 -16 0 -22 -2 -12 -5z"/>
<path d="M11400 7861 l0 -51 108 0 c129 0 179 19 57 21 -44 1 -95 3 -114 3
-20 1 -36 7 -39 15 -3 10 0 11 9 5 12 -7 12 -5 1 9 -8 9 -11 21 -8 26 4 5 2
12 -4 16 -6 4 -10 -13 -10 -44z"/>
<path d="M12648 7885 c-14 -14 -208 -44 -316 -49 -67 -3 -130 -10 -140 -16
-23 -14 205 -3 318 15 96 16 212 53 169 54 -14 1 -28 -1 -31 -4z"/>
</g>
</svg>
